<svg id="Layer_1" enable-background="new 0 0 512.072 512.072" height="512" viewBox="0 0 512.072 512.072" width="512" xmlns="http://www.w3.org/2000/svg"><path d="m495.585 264.036c.746-7.346.502-14.758-.87-22.318 37.356-46.94 10.941-117.368-48.059-128.337-10.834-58.28-79.689-84.777-126.655-49.362-.009-35.282-28.715-63.983-64-63.983-35.284 0-63.99 28.701-63.999 63.983-46.955-35.407-115.817-8.937-126.655 49.362-59.01 10.971-85.397 81.416-48.058 128.337-1.306 7.193-1.654 14.629-.87 22.318-1.215 11.904.299 23.664 4.098 34.508-13.156 14.594-20.515 33.517-20.515 53.492 0 50.332 46.292 88.528 96 78.38v49.62h-48c-8.836 0-16 7.163-16 16s7.164 16 16 16h416c8.837 0 16-7.163 16-16s-7.163-16-16-16h-48v-49.62c76.065 15.529 126.337-75.467 75.484-131.872 3.834-10.944 5.301-22.669 4.099-34.508zm-268.614-174.246c4.179-10.062-2.969-12.961-2.969-25.754 0-17.645 14.355-32 32-32 22.076 0 37.548 21.938 30.153 42.725-3.844 10.806 4.614 22 15.993 21.335 29.675-1.702 45.186 34.388 24.17 54.858-6.173 6.013-6.475 15.833-.685 22.214 6.686 7.368 10.368 16.91 10.368 26.868 0 20.676-12.607 22.909-10.083 35.597.862 4.329 3.474 8.109 7.218 10.447 28.92 18.058 23.449 61.59-8.824 72.019-4.53 1.463-8.173 4.868-9.939 9.288-4.746 11.884 5.629 14.6 5.629 32.649 0 22.056-17.944 40-40 40-15.854 0-30.23-9.388-36.624-23.916-.286-.65-.617-1.267-.977-1.861 3.063-13.89 6.628-28.091 10.218-42.644l58.538-29.269c7.903-3.951 11.107-13.563 7.155-21.466-3.95-7.903-13.561-11.106-21.466-7.155l-34.765 17.382c12.337-58.248 9.92-77.598 9.92-163.072 0-8.837-7.163-16-16-16-8.836 0-16 7.163-16 16v54.112l-8.845-4.422c-7.903-3.952-17.515-.749-21.466 7.155-3.952 7.903-.748 17.515 7.156 21.466l22.964 11.482c-1.9 51.179-18.003 101.15-28.736 149.893-25.866-3.193-42.073-30.229-32.148-54.703 2.612-6.439.769-13.829-4.562-18.287-20.768-17.369-18.795-50.105 4.502-64.651 3.744-2.338 6.356-6.118 7.218-10.447 2.525-12.686-10.083-14.924-10.083-35.597 0-10.755 4.212-20.848 11.862-28.421 3.615-3.579 5.313-8.664 4.573-13.698-2.815-19.164 8.463-36.886 25.42-43.301 4.125-1.56 7.423-4.754 9.115-8.826zm-194.969 262.246c0-14.494 6.467-28.072 17.742-37.253 5.955-4.848 7.625-13.243 3.98-20.002-4.896-9.078-6.557-18.99-5.328-28.745.609-4.826-2.149-11.453 1.696-24.031 1.732-5.665.192-11.823-4.001-16.007-30.032-29.955-8.946-81.962 33.911-81.962 8.836 0 16-7.163 16-16 0-41.419 48.809-62.836 79.37-36.33-10.254 13.124-15.972 29.688-15.319 47.007-17.602 21.633-20.279 50.345-10.244 73.682-27.57 26.671-29.146 70.46-3.901 99.154-5.868 24.915 1.909 51.114 20.797 68.892-9.036 12.335-23.25 19.595-38.703 19.595-16.709 0-19.855-7.608-30.004-3.501-31.491 12.751-65.996-10.552-65.996-44.499zm96 80c26.854 0 51.458-13.153 66.371-35.325 3.835 1.21 7.811 2.094 11.891 2.648-.919 31.341 10.644 60.745 21.099 80.677h-99.362v-48zm136.413 48c-6.972-10.784-20.356-34.144-24.766-60.39 28.116 19.035 65.982 16.017 90.708-8.214 14.492 13.144 33.429 20.604 53.645 20.604v48zm197.496-238.033c1.922 6.288 2.581 12.99 1.696 20.039-.548 4.342 3.22 16.892-5.328 32.739-3.645 6.759-1.974 15.154 3.981 20.002 34.901 28.419 14.891 85.253-30.259 85.253-16.839 0-19.789-7.637-30.004-3.501-18.247 7.388-40.118 3.066-54.024-12.795 4.801-13.726 5.28-28.413 1.599-42.253 40.464-24.644 46.017-80.785 12.622-113.093 9.023-20.983 7.546-45.51-4.501-65.495 15.85-24.266 13.555-57.369-7.753-79.361 31.463-12.754 66.06 10.481 66.06 44.498 0 8.837 7.163 16 16 16 42.893 0 63.926 52.021 33.911 81.962-4.192 4.183-5.731 10.341-4 16.005z"/></svg>